<svg width="40" height="26" viewBox="0 0 40 26" fill="none" xmlns="http://www.w3.org/2000/svg">
<rect y="0.5" width="40" height="24.6154" rx="4" fill="#00A0E9"/>
<mask id="mask0_592_4841" style="mask-type:luminance" maskUnits="userSpaceOnUse" x="7" y="3" width="25" height="19">
<path fill-rule="evenodd" clip-rule="evenodd" d="M7.97357 3.21399H32V21.1784H7.97357V3.21399Z" fill="white"/>
</mask>
<g mask="url(#mask0_592_4841)">
<path fill-rule="evenodd" clip-rule="evenodd" d="M13.895 19.3873C11.7526 19.3873 9.50485 18.4039 9.50485 16.5073C9.50485 14.6108 11.6472 13.5571 13.9652 13.5571C16.2833 13.5571 19.971 15.5591 19.971 15.5591C19.093 17.1044 16.0374 19.3873 13.895 19.3873ZM23.5814 14.2428C25.0323 11.9255 25.6128 9.08486 25.6128 9.08486H20.4451V7.21781H26.7181V6.20457H20.4451V3.21399H17.7934C17.7158 3.21399 17.653 3.27686 17.653 3.35447V6.25198H14.8433V5.30371H14.176V6.21686H11.4014V7.30562H17.7583V9.02656H12.5955V10.1153H22.4646C22.2538 11.6958 21.0246 13.5221 21.0246 13.5221C21.0246 13.5221 16.213 11.8363 13.333 11.8363C10.4531 11.8363 8.07995 13.8754 7.97705 16.244C7.88924 18.2635 9.45214 21.4419 14.1233 21.161C18.7944 20.88 21.9553 16.6654 21.9553 16.6654L32 21.1757V17.0563C23.7816 14.7425 23.5814 14.2428 23.5814 14.2428Z" fill="white"/>
</g>
</svg>
