<svg width="40" height="25" viewBox="0 0 40 25" fill="none" xmlns="http://www.w3.org/2000/svg">
<rect width="40" height="24.6154" rx="4" fill="#E1232E"/>
<path d="M24.5029 11.5965V13.7981H22.2658C22.0363 13.7981 21.8643 13.6146 21.8643 13.4029V11.6107C21.8643 11.3849 22.0507 11.2155 22.2658 11.2155H24.087C24.3308 11.2014 24.5029 11.3707 24.5029 11.5965Z" fill="white"/>
<path d="M34.9857 12.4857H33.8672C33.8672 11.1733 32.7773 10.1008 31.4437 10.1008C30.3825 10.1008 29.4504 10.7781 29.1349 11.766C29.0632 12.0059 29.0202 12.2458 29.0202 12.4857V15.9856H28.9915C28.3892 15.9856 27.9016 15.5058 27.9016 14.913V12.4857H27.916C27.916 11.5261 28.3175 10.6088 29.0345 9.94552C29.6942 9.33869 30.5546 9 31.458 9C33.4083 9 34.9857 10.5665 34.9857 12.4857Z" fill="white"/>
<path d="M35 15.9859L33.4226 16L33.0354 15.619L32.175 14.7722L30.9847 13.6009H32.5622L35 15.9859Z" fill="white"/>
<path d="M24.8758 14.8848H21.5058C21.09 14.8848 20.7601 14.5603 20.7601 14.151V10.8346C20.7601 10.4253 21.09 10.1008 21.5058 10.1008H24.8758C25.2917 10.1008 25.6215 10.4253 25.6215 10.8346V14.151L26.7401 15.2517V10.0725C26.7401 9.47982 26.2525 9 25.6502 9H20.7315C20.1292 9 19.6416 9.47982 19.6416 10.0725V14.913C19.6416 15.5058 20.1292 15.9856 20.7315 15.9856H25.9944L24.8758 14.8848Z" fill="white"/>
<path d="M11.1807 15.9997H9.60325L6.30497 12.7398V15.9997H5V9H6.30497V12.1188L9.47419 9H11.0229L7.58126 12.3587L11.1807 15.9997Z" fill="white"/>
<path d="M17.0747 9H18.351V15.9997H17.0747V12.9656H13.4323V15.9997H12.156V9H13.4323V11.9212H17.0747V9Z" fill="white"/>
</svg>
