<svg width="40" height="26" viewBox="0 0 40 26" fill="none" xmlns="http://www.w3.org/2000/svg">
<rect y="0.5" width="40" height="24.6154" rx="4" fill="#00C800"/>
<path fill-rule="evenodd" clip-rule="evenodd" d="M30 12.0692C30 16.5257 25.5228 20.1383 20 20.1383C18.7861 20.1383 17.6234 19.964 16.5475 19.6443C16.4139 19.6049 16.2703 19.6178 16.1487 19.6837L13.8089 20.952C13.5177 21.1103 13.1734 20.8522 13.2563 20.5381L13.7259 18.7444C13.7785 18.5461 13.6975 18.3372 13.5253 18.219C11.3684 16.7388 10 14.5324 10 12.0692C10 7.61264 14.4772 4 20 4C23.3658 4 26.343 5.34158 28.1557 7.3989L17.9462 11.8043C17.7867 11.8733 17.6019 11.8573 17.4576 11.7624L14.9051 10.0827C14.7481 9.97919 14.5494 10.1393 14.6247 10.3093L16.4899 14.5133C16.6405 14.8521 17.0601 14.987 17.388 14.8028L28.8715 8.34195C29.5924 9.45685 30 10.7245 30 12.0692Z" fill="white"/>
</svg>
