<svg xmlns="http://www.w3.org/2000/svg" width="40" height="26" viewBox="0 0 40 26">
    <g fill="none" fill-rule="evenodd">
        <path fill="#055E7C" d="M2.564 7.5h34.872c.892 0 1.215.093 1.54.267.327.174.583.43.757.756.174.326.267.65.267 1.54v19.488c0 .892-.093 1.215-.267 1.541-.174.326-.43.582-.756.756-.326.175-.65.267-1.54.267H2.563c-.892 0-1.215-.092-1.54-.267-.327-.174-.583-.43-.757-.756-.174-.326-.267-.649-.267-1.54V10.063c0-.892.093-1.215.267-1.54.174-.327.43-.583.756-.757.326-.174.65-.267 1.54-.267z" transform="translate(0 -7)"/>
        <g>
            <path fill="#00BCD4" d="M26.184 5.366c-.232 0-.442.092-.596.24L22.154 8.36l-.65-.514-2.8-2.213-.05-.042c-.042-.035-.048-.04-.117-.089-.15-.11-.319-.182-.513-.182-.454 0-.821.375-.821.838 0 .258.114.489.294.642V6.8l.024.02L20.71 9.42l.56.457.002 2.277v.004c.005.457.38.827.841.827.456 0 .827-.36.84-.81l.002-.003V9.88l3.397-2.696.038-.032.1-.082c.02-.018.049-.039.068-.057l.134-.112c.203-.174.35-.404.35-.685 0-.47-.384-.85-.857-.85M18.131 11.682l-4.033-6.01c-.154-.213-.41-.353-.696-.353-.47 0-.85.378-.85.844 0 .188.062.361.166.502l1.91 2.728-3.631-.006c-.214.006-.551.14-.795.44L8.923 11.63c-.132.145-.214.337-.214.548 0 .45.368.815.821.815.272 0 .512-.13.662-.332l.01-.007 1.153-1.52h4.486l.928 1.44c.138.25.406.42.714.42.45 0 .814-.363.814-.81 0-.168-.052-.325-.14-.454-.008-.018-.016-.034-.026-.048M7.125 5.318H.852c-.47 0-.852.378-.852.845 0 .17.051.328.138.46.118.167.285.286.497.357.07.018.142.029.217.029h6.324c.022 0 .045 0 .066.003.348.035.619.327.619.68 0 .376-.304.68-.68.685H.81c-.506 0-.81.39-.81.835v2.923c0 .462.378.837.843.837.455 0 .825-.358.842-.805V10.077H7.15l.002-.001c1.293-.035 2.33-1.086 2.33-2.378 0-1.3-1.051-2.359-2.357-2.38" transform="translate(0 -7) translate(6.77 13.038)"/>
            <path fill="#FFF" d="M1.005 2.418h.823l-.41-1.248-.413 1.248zM1.766.583l1.065 2.932h-.638l-.2-.603H.844l-.193.603h-.64L1.064.583h.702zM4.986 2.985c.334 0 .491-.112.491-.38 0-.286-.157-.388-.494-.388h-.715v.768h.718zm-.024-1.27c.292 0 .432-.093.432-.318 0-.227-.143-.305-.436-.305h-.69v.624h.694zM3.684.584h1.393c.612 0 .929.264.929.741 0 .293-.115.494-.353.604.308.123.456.35.456.695 0 .558-.378.892-1.076.892H3.684V.583zM7.704 2.418h.822l-.41-1.248-.412 1.248zm.76-1.835L9.53 3.515h-.637l-.202-.603H7.544l-.193.603h-.64L7.76.583h.703z" transform="translate(0 -7) translate(6.77 13.038)"/>
            <path fill="#EB2227" d="M9.804 1.233L10.375 1.233 10.375 0 9.804 0z" transform="translate(0 -7) translate(6.77 13.038)"/>
        </g>
    </g>
</svg>
