<svg xmlns="http://www.w3.org/2000/svg" width="77" height="15" viewBox="0 0 77 15">
    <g fill="none" fill-rule="evenodd">
        <g>
            <path fill="#1B5BA6" d="M2.564 0h18.344c.892 0 1.215.093 1.541.267.326.174.582.43.756.756.174.326.267.65.267 1.54v9.318c0 .891-.093 1.214-.267 1.54-.174.326-.43.582-.756.756-.326.175-.65.267-1.54.267H2.563c-.892 0-1.215-.092-1.54-.267-.327-.174-.583-.43-.757-.756-.174-.326-.267-.649-.267-1.54V2.564c0-.892.093-1.215.267-1.54.174-.327.43-.583.756-.757C1.35.093 1.673 0 2.563 0z" transform="translate(.002)"/>
            <g fill="#FFF">
                <path d="M17.937 6.134h-.473c-.25 0-.499-.002-.748.002-.073.001-.106-.026-.12-.1-.04-.225-.09-.448-.13-.673-.013-.077-.044-.1-.117-.1-.554.003-1.108.004-1.662 0-.08 0-.11.034-.133.104-.076.231-.156.46-.24.689-.012.033-.057.078-.087.078-.476.005-.951.003-1.444.003l.3-.746L14.904.844c.157-.393.333-.517.742-.517.345 0 .691.002 1.037 0 .07-.001.1.016.117.097.247 1.248.499 2.495.75 3.743l.367 1.843.019.124zm-1.73-2.056l-.428-2.15-.03-.002-.746 2.152h1.204zM.105.483L.132.346C.132.343.136.34.146.327.182.325.226.322.27.322h2.287c.378 0 .624.208.696.599.195 1.066.386 2.132.578 3.198.008.04.018.08.036.155l.231-.61L5.33.41c.02-.055.04-.09.109-.09.457.005.914.003 1.372.004.014 0 .029.004.057.008-.043.111-.083.218-.126.324C6.022 2.45 5.302 4.245 4.585 6.04c-.03.076-.069.104-.148.103-.435-.004-.87-.005-1.305 0-.085 0-.122-.023-.144-.112-.371-1.51-.749-3.017-1.115-4.527-.067-.274-.191-.48-.45-.574C1.029.788.63.654.232.517.193.504.153.496.105.483zM13.111.48l-.25 1.217c-.325-.148-.656-.245-1.004-.266-.258-.016-.515-.013-.75.115-.065.035-.127.084-.177.14-.137.152-.145.36.004.498.14.13.302.236.462.338.244.155.501.288.743.447 1.094.722.764 2.097.107 2.652-.389.328-.837.5-1.322.568-.707.099-1.4.025-2.075-.22-.035-.012-.068-.028-.109-.046L9 4.653l.163.077c.467.227.957.328 1.472.279.187-.018.366-.07.519-.191.243-.192.269-.504.036-.707-.16-.14-.352-.24-.532-.357-.264-.172-.548-.317-.79-.517-.828-.684-.572-1.74-.08-2.269.375-.404.846-.605 1.366-.699.647-.117 1.28-.043 1.898.18.018.007.033.017.06.03zM8.933.332l-1.187 5.8H6.308l1.19-5.8h1.435z" transform="translate(.002) translate(2.528 3.972)"/>
            </g>
        </g>
        <g>
            <path fill="#000" d="M2.564 0h18.344c.892 0 1.215.093 1.541.267.326.174.582.43.756.756.174.326.267.65.267 1.54v9.318c0 .891-.093 1.214-.267 1.54-.174.326-.43.582-.756.756-.326.175-.65.267-1.54.267H2.563c-.892 0-1.215-.092-1.54-.267-.327-.174-.583-.43-.757-.756-.174-.326-.267-.649-.267-1.54V2.564c0-.892.093-1.215.267-1.54.174-.327.43-.583.756-.757C1.35.093 1.673 0 2.563 0z" transform="translate(27.207)"/>
            <g>
                <path fill="#FF5F00" d="M5.669 8.612L10.297 8.612 10.297 1.194 5.669 1.194z" transform="translate(27.207) translate(3.611 1.806)"/>
                <g>
                    <path fill="#EB001B" d="M6 4.789C6 3.342 6.676 1.974 7.836 1.08 5.75-.53 2.727-.173 1.086 1.875c-1.64 2.048-1.277 5.013.81 6.623 1.743 1.344 4.197 1.344 5.94 0C6.676 7.604 6 6.236 6 4.788" transform="translate(27.207) translate(3.611 1.806) translate(.145 .115)"/>
                    <path fill="#F79E1B" d="M15.724 10.051v-1h-.115l-.135.715-.134-.715h-.116v1h.083v-.757l.126.65h.086l.125-.65v.757h.08zm-.71 0v-.828h.21V9.05h-.5v.172h.198v.828h.092zM15.613 4.789c0 2.605-2.152 4.716-4.806 4.716-1.078 0-2.124-.355-2.97-1.008 2.086-1.61 2.449-4.575.808-6.623-.236-.296-.508-.562-.809-.794 2.087-1.61 5.109-1.255 6.75.792.665.832 1.027 1.858 1.027 2.915v.002z" transform="translate(27.207) translate(3.611 1.806) translate(.145 .115)"/>
                </g>
            </g>
        </g>
        <g>
            <path fill="#DC1F2A" d="M.036 13.074c-.173.757.3 1.37 1.055 1.37h5.791c.755 0 1.508-.613 1.68-1.37l2.67-11.703C11.406.614 10.934 0 10.179 0H4.386c-.755 0-1.507.614-1.68 1.37L.036 13.075z" transform="translate(54.407)"/>
            <path fill="#1A457F" d="M5.087 13.074c-.173.757.3 1.37 1.055 1.37h5.791c.756 0 1.508-.613 1.68-1.37L16.285 1.37C16.457.614 15.984 0 15.23 0H9.438c-.756 0-1.508.614-1.68 1.37L5.086 13.075z" transform="translate(54.407)"/>
            <path fill="#05798A" d="M10.915 13.074c-.172.757.3 1.37 1.055 1.37h5.792c.755 0 1.508-.613 1.68-1.37l2.67-11.703C22.286.614 21.814 0 21.059 0h-5.792c-.755 0-1.508.614-1.68 1.37l-2.67 11.704z" transform="translate(54.407)"/>
            <path fill="#FEFEFE" d="M14.67 10.693c.159 0 .305.002.45-.001.016 0 .04-.025.045-.043.032-.105.06-.211.09-.318.007-.024.011-.049.018-.08-.135 0-.262-.002-.39 0-.109 0-.082-.018-.113.085-.035.116-.065.233-.1.357m1.094-2.191c-.156 0-.305-.001-.454.001-.012 0-.03.02-.034.035-.016.042-.026.085-.039.128l-.115.412.04-.01c.15-.04.299-.078.448-.12.019-.006.04-.031.046-.052.033-.105.061-.211.09-.317.007-.023.011-.046.018-.077m-.242.873c-.158 0-.306-.001-.453.001-.013 0-.034.017-.037.03-.053.188-.104.377-.156.568.01 0 .016.002.02 0 .154-.07.311-.129.478-.156.011-.002.027-.014.03-.025.04-.136.077-.272.118-.418m-.838-.87l-.124-.01.067-.24c.018-.065.034-.13.056-.193.006-.017.027-.04.042-.04.205-.002.41 0 .616 0 .005 0 .01.004.02.008l-.02.153.17-.068c.166-.066.336-.1.515-.096.21.004.421 0 .632 0 .024 0 .047.004.077.006l-.013.06c-.034.12-.07.24-.1.36-.01.045-.031.061-.073.055-.052-.007-.077.013-.092.067-.192.691-.386 1.38-.58 2.07l-.01.054.12.006c-.005.02-.007.038-.012.055-.03.111-.064.222-.093.334-.01.043-.03.062-.072.054-.057-.01-.08.014-.094.071-.028.12-.032.12-.155.12h-.529l.05-.187h-1.253c0-.02-.003-.033 0-.044.034-.123.07-.244.103-.367.01-.04.036-.044.067-.039.058.01.078-.017.093-.071l.582-2.082.01-.036M3.825 3.714c-.024.12-.046.23-.07.342-.13.638-.262 1.275-.387 1.913-.018.09-.014.188.005.278.036.175.172.278.38.295.232.019.453-.02.639-.18.143-.125.208-.29.245-.473.143-.71.289-1.418.434-2.127.005-.027.01-.05.047-.049.209.002.418.001.627.001.007 0 .014.003.024.005 0 .011.002.023 0 .033-.154.749-.303 1.499-.463 2.247-.132.613-.52.975-1.118 1.107-.303.067-.61.074-.912-.009-.32-.087-.547-.277-.621-.618-.041-.188-.017-.376.021-.563.147-.714.293-1.428.438-2.143.01-.045.025-.061.072-.06.192.003.385 0 .577 0h.062zM11.947 9.404h.074c.274.002.547.004.821.002.027 0 .07-.017.078-.037.03-.081.049-.166.073-.257-.319 0-.627 0-.936.002-.013 0-.033.012-.037.023-.025.086-.047.172-.073.267m1.223-.948l-.028-.004-.898-.001c-.035 0-.045.017-.052.044l-.084.302c-.003.011-.003.024-.005.04.012-.003.019-.004.025-.008.135-.067.277-.096.428-.094.164.003.329.002.493 0 .019 0 .049-.016.053-.031.026-.08.045-.161.068-.248m-.915-.445l-.023.222c.069-.04.127-.075.186-.107.162-.09.334-.133.52-.13.311.003.622 0 .933 0 .023 0 .046.003.076.005l-.017.076c-.133.488-.268.976-.398 1.464-.042.158-.148.23-.295.257-.052.01-.107.013-.16.013-.394 0-.788.001-1.182-.001-.049 0-.065.017-.076.061l-.267.99c-.023.089-.011.105.077.105h.234c-.03.117-.057.222-.088.325-.003.012-.028.025-.042.024-.235-.002-.47-.005-.704-.01-.034-.001-.07-.014-.102-.027-.076-.033-.107-.09-.086-.171.064-.252.132-.502.2-.753.203-.762.407-1.523.609-2.285.012-.047.03-.063.078-.062.156.003.311.001.466.002l.06.002M14.365 5.335c.015.002.022.004.03.004.218 0 .436.005.654-.002.141-.004.276-.043.374-.156.124-.142.166-.314.16-.5-.004-.104-.055-.185-.15-.222-.075-.03-.157-.052-.236-.055-.2-.008-.4-.003-.599-.005-.035 0-.048.015-.054.048l-.087.427-.092.46m-1.027 1.752l.083-.418.45-2.222c.039-.189.077-.377.114-.566.007-.034.02-.05.058-.049.49.002.98-.001 1.47.003.156.002.309.036.447.115.195.11.298.286.313.506.025.356-.053.69-.273.976-.223.29-.517.457-.88.476-.27.014-.54.009-.81.01-.05 0-.07.013-.08.065-.067.351-.14.702-.209 1.054-.008.038-.022.055-.065.055-.189-.003-.377-.001-.566-.002l-.052-.003M16.851 10.089h-.628c.04-.142.077-.277.118-.41.003-.012.036-.02.056-.02.196-.001.392-.002.588 0 .043.001.062-.012.072-.054.028-.108.06-.215.092-.33h-.693l.013-.062.09-.324c.01-.036.025-.052.065-.051h1.925c.014 0 .029.003.049.006-.005.021-.007.039-.012.056l-.09.324c-.009.038-.026.05-.065.05-.179-.003-.358 0-.538-.002-.04 0-.058.012-.068.052-.028.11-.06.219-.092.334h.638l-.026.101c-.026.094-.055.186-.078.28-.01.041-.028.054-.068.054-.202-.002-.404 0-.605-.002-.045 0-.071.014-.093.052-.034.059-.073.115-.117.184.1 0 .189.002.277-.001.047-.002.069.011.076.062.02.142.047.284.068.426.01.058.045.079.096.081.044.003.088 0 .137 0-.003.02-.003.033-.006.045l-.092.335c-.008.032-.025.044-.058.044-.137-.002-.274.002-.411-.001-.12-.003-.232-.05-.252-.213-.017-.143-.056-.284-.088-.436-.108.166-.214.321-.314.48-.079.125-.185.187-.332.183-.18-.003-.36 0-.539-.001h-.069l.042-.157c.02-.074.042-.147.061-.221.008-.032.024-.044.055-.043h.138c.084.004.15-.033.195-.098.161-.231.319-.465.477-.698.003-.004.003-.01.006-.025M18.541 5.079h.679c.006.22.015.44.018.659.003.216 0 .433 0 .65l.022.002.174-.41c.119-.282.239-.564.356-.847.02-.047.044-.063.095-.062.15.003.3 0 .45.001l.068.003c-.01.026-.017.044-.026.062l-1.201 2.467c-.144.293-.313.569-.55.797-.18.173-.393.268-.64.286-.06.005-.12.008-.19.012l.032-.25c.003-.024.003-.049.01-.071.007-.018.02-.04.034-.046.203-.077.346-.226.47-.398.149-.21.26-.44.358-.677.026-.06.003-.143-.002-.215-.012-.166-.027-.332-.04-.498l-.053-.637-.048-.616-.016-.212M17.306 5.952c-.012-.043-.026-.13-.063-.208-.052-.11-.16-.144-.272-.097-.039.016-.078.038-.109.066-.196.174-.277.401-.282.658-.002.088.016.175.067.251.057.085.145.118.241.09.085-.026.15-.08.206-.147.135-.164.2-.355.212-.613m.08-.557c.036-.025.073-.046.105-.073.077-.065.162-.096.263-.098.11-.002.221-.02.331-.03.024-.002.047 0 .077 0l-.09.422c-.102.471-.206.941-.306 1.412-.01.049-.028.064-.077.062-.175-.006-.35-.008-.526-.015-.024 0-.05-.018-.07-.034-.024-.02-.041-.047-.057-.066-.127.037-.248.077-.371.107-.112.028-.228.031-.34.002-.205-.052-.311-.198-.354-.397-.055-.258-.007-.506.073-.75.053-.16.129-.31.228-.447.13-.181.314-.259.522-.296.18-.033.34.023.486.125l.106.076M10.745 10.942c-.034.126-.065.243-.099.36-.003.01-.026.025-.04.025-.353 0-.706.003-1.06-.001-.15-.002-.229-.107-.196-.26.037-.173.087-.343.132-.515l.085-.317h-.431l.054-.208.044-.168c.008-.03.022-.042.054-.041.117.002.233.002.35 0 .016 0 .043-.012.047-.024.034-.118.065-.237.099-.364h-.408c.003-.02.004-.035.008-.049.028-.106.057-.212.084-.32.009-.033.024-.052.061-.047.016.003.033 0 .05 0H11.217c-.007.032-.01.057-.017.081-.025.092-.052.184-.074.276-.01.043-.026.06-.074.06-.194-.004-.388 0-.582-.003-.047 0-.064.015-.074.059-.026.109-.057.216-.088.33h.67c-.002.02-.002.035-.005.048-.028.105-.058.21-.084.314-.01.041-.027.058-.071.057-.189-.003-.377 0-.566-.002-.047-.001-.063.016-.074.059-.044.174-.092.346-.14.52-.025.092 0 .129.098.13h.609M9.568 6.297v.068c.01.177.111.292.284.321.2.035.398-.06.508-.255.112-.198.163-.413.148-.641-.01-.158-.103-.277-.25-.304-.186-.036-.354.008-.478.163-.151.188-.198.414-.212.648m.27.84c-.155.002-.306-.021-.444-.1-.249-.14-.356-.368-.357-.647-.002-.306.076-.593.246-.849.315-.476.846-.6 1.273-.47.276.085.463.33.478.62.022.43-.09.817-.398 1.127-.22.22-.49.32-.798.32M11.686 7.085h-.508l.089-.46c.098-.5.198-.998.295-1.497.008-.043.025-.055.065-.054.144.002.288 0 .441 0l-.046.257.018.016c.007-.014.011-.031.021-.043.231-.262.518-.331.845-.243.158.043.275.203.296.373.019.15-.018.294-.046.438-.076.389-.154.777-.229 1.166-.008.044-.026.053-.065.052-.13-.002-.26 0-.389 0-.02 0-.04-.003-.068-.004l.053-.272.199-1.024.003-.016c.027-.204-.06-.303-.262-.299-.237.006-.42.162-.475.418-.078.373-.148.748-.222 1.122l-.015.07M6.445 5.076l-.053.282.052-.06c.225-.247.501-.328.82-.239.196.055.323.22.314.425-.007.167-.038.334-.069.499-.064.347-.136.693-.205 1.04l-.014.062h-.507l.057-.293c.063-.323.128-.645.19-.968.01-.055.01-.113.005-.168-.01-.102-.07-.162-.17-.176-.24-.034-.45.084-.533.316-.045.128-.066.265-.093.398-.058.282-.112.565-.166.848-.005.025-.008.046-.042.046-.155-.002-.31 0-.475 0l.05-.267c.11-.558.221-1.115.33-1.673.01-.057.03-.076.088-.074.137.005.273.002.42.002" transform="translate(54.407)"/>
            <path fill="#FEFEFE" d="M13.178 10.985c-.03.112-.058.215-.088.316-.004.013-.026.027-.04.027-.238.002-.477.004-.716 0-.128-.003-.216-.098-.216-.23 0-.184.008-.368.013-.551.006-.19.015-.378.022-.567.003-.075.002-.075.074-.075h.507l-.01.245c.06 0 .117.002.174 0 .044-.003.07-.026.082-.076.039-.157.041-.157.204-.157h.328c-.044.127-.072.248-.126.357-.062.127-.186.178-.32.188-.096.008-.193.007-.29.006-.045 0-.065.01-.064.062.004.113 0 .225 0 .338.001.067.022.095.089.106.045.007.092.01.138.01.075.002.15.001.239.001M8.775 5.076l-.063.305c-.117.552-.236 1.104-.352 1.656-.008.039-.022.052-.061.051-.148-.002-.296 0-.444 0-.016 0-.032-.003-.054-.004l.104-.492c.102-.483.205-.965.306-1.448.01-.05.026-.072.081-.07.157.005.314.002.483.002M9.482 8.876c.036-.132.068-.255.104-.376.003-.01.023-.02.036-.023.022-.004.044-.001.067-.001.079-.002.139-.032.182-.105.066-.11.14-.216.212-.322.012-.017.037-.034.056-.035.2-.002.4-.001.6 0 .006 0 .013.002.028.005l-.13.237h.787c-.034.128-.064.245-.098.36-.003.013-.034.023-.052.024-.276.001-.551.002-.826 0-.047 0-.077.01-.106.05-.093.127-.217.192-.377.187-.156-.005-.313-.001-.483-.001M16.754 7.994h.6c.039 0 .039.026.042.052.008.064.016.13.021.194.004.05.032.069.076.07h.132c-.003.023-.003.037-.006.05l-.09.318c-.007.03-.022.043-.054.042-.159-.001-.318.002-.477 0-.135-.003-.209-.072-.218-.209-.012-.17-.017-.34-.026-.517M8.296 4.831l.063-.306c.01-.048.018-.096.032-.142.004-.015.025-.035.038-.035.167-.002.333-.001.5 0 .004 0 .01.003.02.007l-.06.295c-.01.051-.02.103-.034.153-.004.014-.025.034-.038.034-.167.002-.333.001-.5 0-.005 0-.01-.003-.02-.006" transform="translate(54.407)"/>
        </g>
    </g>
</svg>
