<svg width="32" height="24" viewBox="0 0 32 24" fill="none" xmlns="http://www.w3.org/2000/svg">
<rect width="32" height="24" rx="2" fill="#E1232E"/>
<path d="M19.3825 11.2163V13.0955H17.5033C17.3106 13.0955 17.166 12.9389 17.166 12.7582V11.2284C17.166 11.0356 17.3226 10.8911 17.5033 10.8911H19.0331C19.2379 10.879 19.3825 11.0236 19.3825 11.2163Z" fill="white"/>
<path d="M28.188 11.9753H27.2485C27.2485 10.8551 26.333 9.93957 25.2127 9.93957C24.3213 9.93957 23.5383 10.5178 23.2733 11.361C23.2131 11.5658 23.1769 11.7706 23.1769 11.9753V14.9627H23.1529C22.6469 14.9627 22.2374 14.5531 22.2374 14.0472V11.9753H22.2494C22.2494 11.1562 22.5867 10.3732 23.189 9.80707C23.7431 9.2891 24.4659 9 25.2247 9C26.863 9 28.188 10.3371 28.188 11.9753Z" fill="white"/>
<path d="M28.2 14.9629L26.875 14.9749L26.5497 14.6497L25.827 13.9269L24.8271 12.9271H26.1522L28.2 14.9629Z" fill="white"/>
<path d="M19.6957 14.0231H16.8649C16.5156 14.0231 16.2385 13.7461 16.2385 13.3968V10.566C16.2385 10.2166 16.5156 9.93957 16.8649 9.93957H19.6957C20.045 9.93957 20.3221 10.2166 20.3221 10.566V13.3968L21.2617 14.3363V9.91549C21.2617 9.40956 20.8521 9 20.3462 9H16.2144C15.7085 9 15.299 9.40956 15.299 9.91549V14.0472C15.299 14.5531 15.7085 14.9627 16.2144 14.9627H20.6353L19.6957 14.0231Z" fill="white"/>
<path d="M8.19179 14.9748H6.86674L4.09618 12.1922V14.9748H3V9H4.09618V11.6621L6.75832 9H8.05928L5.16826 11.8669L8.19179 14.9748Z" fill="white"/>
<path d="M13.1428 9H14.2149V14.9748H13.1428V12.3849H10.0831V14.9748H9.01105V9H10.0831V11.4935H13.1428V9Z" fill="white"/>
</svg>
